<svg xmlns="http://www.w3.org/2000/svg" viewBox="0 0 513 348" width="513" height="348">
	<style>
		tspan { white-space:pre }
		.shp0 { fill: #ffffff } 
	</style>
	<g id="Pasta 1">
		<path id="Layer" class="shp0" d="M198.81 0.09L101.96 0.09C91.87 0.09 83.69 8.27 83.69 18.36L83.69 123.79L217.07 123.79L217.07 18.36C217.07 8.27 208.9 0.09 198.81 0.09ZM409.38 0.09L312.53 0.09C302.44 0.09 294.27 8.27 294.27 18.36L294.27 123.79L427.65 123.79L427.65 18.36C427.65 8.27 419.47 0.09 409.38 0.09ZM493.74 347.87L18.26 347.87C8.18 347.87 0 339.69 0 329.6L0 114.96C0 104.88 8.18 96.7 18.26 96.7L493.74 96.7C503.82 96.7 512 104.88 512 114.96L512 329.61C512 339.7 503.82 347.87 493.74 347.87Z" />
	</g>
</svg>