<?xml version="1.0" encoding="iso-8859-1"?>
<!-- Generator: Adobe Illustrator 19.0.0, SVG Export Plug-In . SVG Version: 6.00 Build 0)  -->
<svg xmlns="http://www.w3.org/2000/svg" xmlns:xlink="http://www.w3.org/1999/xlink" version="1.1" id="Capa_1" x="0px" y="0px" viewBox="0 0 512 512" style="enable-background:new 0 0 512 512;" xml:space="preserve" width="512px" height="512px">
<g>
	<g>
		<rect x="138.667" y="437.333" width="298.667" height="21.333" fill="#FFFFFF"/>
	</g>
</g>
<g>
	<g>
		<path d="M64,0C28.668,0.035,0.035,28.668,0,64v384h21.333V64c0-23.564,19.103-42.667,42.667-42.667h149.333V0H64z" fill="#FFFFFF"/>
	</g>
</g>
<g>
	<g>
		<path d="M437.333,384H64c-35.346,0-64,28.654-64,64c0,35.346,28.654,64,64,64h373.333c5.891,0,10.667-4.776,10.667-10.667V394.667    C448,388.776,443.224,384,437.333,384z M426.667,490.667H64c-23.564,0-42.667-19.102-42.667-42.667    c0-23.564,19.103-42.667,42.667-42.667h362.667V490.667z" fill="#FFFFFF"/>
	</g>
</g>
<g>
	<g>
		<rect x="64" y="10.667" width="21.333" height="384" fill="#FFFFFF"/>
	</g>
</g>
<g>
	<g>
		<path d="M138.667,64C132.776,64,128,68.776,128,74.667V128h21.333V85.333h21.333V64H138.667z" fill="#FFFFFF"/>
	</g>
</g>
<g>
	<g>
		<path d="M149.333,192v-32H128v42.667c0,5.891,4.776,10.667,10.667,10.667h32V192H149.333z" fill="#FFFFFF"/>
	</g>
</g>
<g>
	<g>
		<rect x="128" y="149.333" width="42.667" height="21.333" fill="#FFFFFF"/>
	</g>
</g>
<g>
	<g>
		<rect x="128" y="245.333" width="21.333" height="21.333" fill="#FFFFFF"/>
	</g>
</g>
<g>
	<g>
		<rect x="170.667" y="245.333" width="21.333" height="21.333" fill="#FFFFFF"/>
	</g>
</g>
<g>
	<g>
		<rect x="96" y="437.333" width="21.333" height="21.333" fill="#FFFFFF"/>
	</g>
</g>
<g>
	<g>
		<path d="M352,0c-88.366,0-160,71.634-160,160s71.634,160,160,160c88.324-0.1,159.9-71.676,160-160C512,71.634,440.366,0,352,0z     M352,298.667c-76.583,0-138.667-62.083-138.667-138.667S275.417,21.333,352,21.333C428.547,21.422,490.578,83.453,490.667,160    C490.667,236.583,428.583,298.667,352,298.667z" fill="#FFFFFF"/>
	</g>
</g>
<g>
	<g>
		<rect x="426.667" y="341.333" width="21.333" height="53.333" fill="#FFFFFF"/>
	</g>
</g>
<g>
	<g>
		<path d="M352,64c-17.673,0-32,14.327-32,32s14.327,32,32,32s32-14.327,32-32S369.673,64,352,64z M352,106.667    c-5.891,0-10.667-4.776-10.667-10.667S346.109,85.333,352,85.333c5.891,0,10.667,4.776,10.667,10.667S357.891,106.667,352,106.667    z" fill="#FFFFFF"/>
	</g>
</g>
<g>
	<g>
		<path d="M362.667,234.667V160c0-5.891-4.776-10.667-10.667-10.667h-42.667v21.333h32v74.667c0,5.891,4.776,10.667,10.667,10.667    h42.667v-21.333H362.667z" fill="#FFFFFF"/>
	</g>
</g>
<g>
</g>
<g>
</g>
<g>
</g>
<g>
</g>
<g>
</g>
<g>
</g>
<g>
</g>
<g>
</g>
<g>
</g>
<g>
</g>
<g>
</g>
<g>
</g>
<g>
</g>
<g>
</g>
<g>
</g>
</svg>
