<?xml version="1.0" encoding="UTF-8" standalone="no"?>
<svg
   xmlns:dc="http://purl.org/dc/elements/1.1/"
   xmlns:cc="http://creativecommons.org/ns#"
   xmlns:rdf="http://www.w3.org/1999/02/22-rdf-syntax-ns#"
   xmlns:svg="http://www.w3.org/2000/svg"
   xmlns="http://www.w3.org/2000/svg"
   xmlns:sodipodi="http://sodipodi.sourceforge.net/DTD/sodipodi-0.dtd"
   xmlns:inkscape="http://www.inkscape.org/namespaces/inkscape"
   height="460.24pt"
   viewBox="0 0 460.24 460.24"
   width="460.24pt"
   version="1.1"
   id="svg6"
   sodipodi:docname="correct.svg"
   inkscape:version="0.92.3 (2405546, 2018-03-11)">
  <metadata
     id="metadata12">
    <rdf:RDF>
      <cc:Work
         rdf:about="">
        <dc:format>image/svg+xml</dc:format>
        <dc:type
           rdf:resource="http://purl.org/dc/dcmitype/StillImage" />
      </cc:Work>
    </rdf:RDF>
  </metadata>
  <defs
     id="defs10" />
  <sodipodi:namedview
     pagecolor="#ffffff"
     bordercolor="#666666"
     borderopacity="1"
     objecttolerance="10"
     gridtolerance="10"
     guidetolerance="10"
     inkscape:pageopacity="0"
     inkscape:pageshadow="2"
     inkscape:window-width="762"
     inkscape:window-height="480"
     id="namedview8"
     showgrid="false"
     inkscape:zoom="0.38458197"
     inkscape:cx="306.82666"
     inkscape:cy="306.82666"
     inkscape:window-x="0"
     inkscape:window-y="27"
     inkscape:window-maximized="0"
     inkscape:current-layer="svg6" />
  <path
     d="m187.777344 286.496094c-3.125 3.117187-8.183594 3.117187-11.304688 0l-39.640625-39.574219-11.3125 11.269531 56.601563 56.617188 147.085937-147.089844-11.328125-11.328125zm0 0"
     id="path2"
     style="fill:#ffffff" />
  <path
     d="m423.128906 175.425781 6.304688-60.386719-55.480469-24.6875c-1.8125-.804687-3.261719-2.253906-4.066406-4.0625l-24.679688-55.480468-60.398437 6.3125c-1.960938.195312-3.925782-.335938-5.519532-1.488282l-49.167968-35.632812-49.167969 35.632812c-1.597656 1.152344-3.5625 1.683594-5.519531 1.488282l-60.402344-6.3125-24.679688 55.480468c-.800781 1.808594-2.25 3.257813-4.0625 4.054688l-55.480468 24.695312 6.304687 60.386719c.203125 1.960938-.324219 3.929688-1.480469 5.527344l-35.632812 49.167969 35.632812 49.167968c1.15625 1.597657 1.683594 3.566407 1.480469 5.527344l-6.304687 60.382813 55.480468 24.6875c1.808594.804687 3.257813 2.253906 4.0625 4.066406l24.679688 55.480469 60.402344-6.3125c.269531 0 .550781-.042969.796875-.042969 1.6875 0 3.328125.535156 4.691406 1.53125l49.199219 35.628906 49.167968-35.628906c1.59375-1.160156 3.558594-1.691406 5.519532-1.488281l60.398437 6.3125 24.679688-55.480469c.804687-1.8125 2.253906-3.257813 4.066406-4.058594l55.480469-24.695312-6.304688-60.382813c-.207031-1.960937.320313-3.929687 1.480469-5.527344l35.628906-49.167968-35.628906-49.167969c-1.160156-1.597656-1.6875-3.566406-1.480469-5.527344zm-76.953125-2.050781-158.398437 158.402344c-3.125 3.121094-8.1875 3.121094-11.3125 0l-67.921875-67.921875c-1.503907-1.5-2.347657-3.539063-2.347657-5.664063s.84375-4.164062 2.347657-5.664062l22.640625-22.558594c3.121094-3.113281 8.175781-3.113281 11.296875 0l39.640625 39.558594 130.101562-130.101563c3.125-3.125 8.1875-3.125 11.3125 0l22.640625 22.636719c3.125 3.125 3.125 8.191406 0 11.3125zm0 0"
     id="path4"
     style="fill:#ffffff" />
</svg>
