<?xml version="1.0"?>
<svg xmlns="http://www.w3.org/2000/svg" xmlns:xlink="http://www.w3.org/1999/xlink" version="1.1" id="Layer_1" x="0px" y="0px" viewBox="0 0 512 512" style="enable-background:new 0 0 512 512;" xml:space="preserve" width="512px" height="512px" class=""><g><g>
	<g>
		<path d="M510.758,325.917l0.003-0.001l-0.029-0.05c0,0,0-0.001-0.001-0.001l-0.001-0.001L344.453,36.28    c-1.666-2.901-4.756-4.69-8.103-4.69h-160.7c-3.335,0-6.415,1.776-8.087,4.662c-0.005,0.01-0.009,0.02-0.015,0.03l-0.001-0.001    L1.241,325.916c-1.646,2.867-1.654,6.387-0.025,9.263l79.693,140.498c1.654,2.919,4.748,4.725,8.103,4.734    c0.009,0,0.016,0,0.025,0s0.017-0.001,0.026-0.001v0.001h333.984c3.346-0.009,6.432-2.725,8.09-5.631l79.638-139.58    C512.416,332.32,512.407,328.789,510.758,325.917z M330.941,50.277l155.602,270.993l-138.935,0.381L191.789,50.277H330.941z     M326.096,321.71l-140.749,0.386l70.485-122.755L326.096,321.71z M20.102,330.597L175.65,59.697l69.409,120.881L89.086,452.216    L20.102,330.597z M417.585,460.821l-312.385,0.858l69.4-120.866l311.944-0.857L417.585,460.821z" data-original="#000000" class="active-path" data-old_color="#000000" fill="#FFFFFF"/>
	</g>
</g></g> </svg>
