<?xml version="1.0" encoding="UTF-8" standalone="no"?>
<svg
   xmlns:dc="http://purl.org/dc/elements/1.1/"
   xmlns:cc="http://creativecommons.org/ns#"
   xmlns:rdf="http://www.w3.org/1999/02/22-rdf-syntax-ns#"
   xmlns:svg="http://www.w3.org/2000/svg"
   xmlns="http://www.w3.org/2000/svg"
   xmlns:sodipodi="http://sodipodi.sourceforge.net/DTD/sodipodi-0.dtd"
   xmlns:inkscape="http://www.inkscape.org/namespaces/inkscape"
   height="682pt"
   viewBox="-23 -21 682 682.66669"
   width="682pt"
   version="1.1"
   id="svg22"
   sodipodi:docname="exchange.svg"
   inkscape:version="0.92.3 (2405546, 2018-03-11)">
  <metadata
     id="metadata28">
    <rdf:RDF>
      <cc:Work
         rdf:about="">
        <dc:format>image/svg+xml</dc:format>
        <dc:type
           rdf:resource="http://purl.org/dc/dcmitype/StillImage" />
      </cc:Work>
    </rdf:RDF>
  </metadata>
  <defs
     id="defs26" />
  <sodipodi:namedview
     pagecolor="#ffffff"
     bordercolor="#666666"
     borderopacity="1"
     objecttolerance="10"
     gridtolerance="10"
     guidetolerance="10"
     inkscape:pageopacity="0"
     inkscape:pageshadow="2"
     inkscape:window-width="1920"
     inkscape:window-height="1025"
     id="namedview24"
     showgrid="false"
     inkscape:zoom="0.51906158"
     inkscape:cx="526.69115"
     inkscape:cy="250.37995"
     inkscape:window-x="0"
     inkscape:window-y="27"
     inkscape:window-maximized="1"
     inkscape:current-layer="svg22" />
  <path
     d="m165.195312 309.945312c-37.324218 0-72.527343 12.15625-101.820312 35.148438-6.683594 5.25-13.019531 11.058594-18.824219 17.273438-8.679687 9.296874-16.285156 19.589843-22.59375 30.59375-14.257812 24.847656-21.789062 53.207031-21.789062 82.007812 0 91 74.03125 165.03125 165.027343 165.03125 90.996094 0 165.023438-74.03125 165.023438-165.03125 0-90.992188-74.027344-165.023438-165.023438-165.023438zm0 304.960938c-77.164062 0-139.9375-62.773438-139.9375-139.9375 0-24.425781 6.382813-48.46875 18.464844-69.523438 5.355469-9.332031 11.800782-18.0625 19.167969-25.953124 4.925781-5.277344 10.304687-10.210938 15.976563-14.664063 24.824218-19.492187 54.679687-29.792969 86.328124-29.792969 77.160157 0 139.9375 62.777344 139.9375 139.933594 0 77.164062-62.777343 139.9375-139.9375 139.9375zm0 0"
     id="path2"
     style="fill:#ffffff" />
  <path
     d="m165.195312 359.179688c-19.058593 0-34.664062 3.316406-49.121093 10.433593-6.214844 3.058594-8.773438 10.578125-5.710938 16.792969 3.054688 6.214844 10.574219 8.78125 16.789063 5.71875 11.03125-5.429688 22.765625-7.851562 38.042968-7.851562 49.132813 0 89.105469 39.976562 89.105469 89.105468 0 49.136719-39.972656 89.113282-89.105469 89.113282-49.136718 0-89.109374-39.976563-89.109374-89.113282 0-5.253906.457031-10.523437 1.367187-15.652344 1.210937-6.824218-3.339844-13.332031-10.167969-14.539062-6.820312-1.214844-13.328125 3.339844-14.539062 10.167969-1.164063 6.566406-1.753906 13.304687-1.753906 20.023437 0 62.972656 51.230468 114.203125 114.203124 114.203125 62.96875 0 114.199219-51.230469 114.199219-114.203125 0-62.96875-51.230469-114.199218-114.199219-114.199218zm0 0"
     id="path4"
     style="fill:#ffffff" />
  <path
     d="m159.84375 523.785156c-8.921875 0-16.753906-10.457031-16.753906-22.375 0-6.921875-5.613282-12.542968-12.542969-12.542968s-12.542969 5.621093-12.542969 12.542968c0 22.324219 13.660156 41.089844 31.992188 46.125.269531 6.691406 5.761718 12.039063 12.523437 12.039063 6.925781 0 12.542969-5.613281 12.542969-12.542969v-.054688c18.640625-4.746093 34.777344-18.542968 34.777344-42.75 0-28.878906-29.492188-44.640624-44.648438-44.648437-1.894531 0-7.710937-.9375-12.648437-3.722656-6.121094-3.464844-6.90625-7.417969-6.90625-10.480469 0-19.023438 19.363281-19.558594 19.558593-19.558594 3.691407 0 8.175782 2.183594 11.683594 5.699219 1.765625 1.757813 1.949219 1.941406 1.949219 9.070313 0 6.929687 5.617187 12.519531 12.542969 12.519531 6.929687 0 12.546875-5.640625 12.546875-12.574219 0-8.183594 0-17.464844-9.292969-26.761719-5.679688-5.679687-12.5-9.699219-19.585938-11.664062-.25-6.710938-5.75-12.082031-12.519531-12.082031-6.929687 0-12.546875 5.621093-12.546875 12.550781v1.105469c-14.078125 5.152343-29.425781 17.601562-29.425781 41.691406 0 13.6875 6.976563 25.167968 19.652344 32.324218 9.109375 5.148438 19.148437 6.972657 24.875 6.972657h.015625c3.890625.246093 19.660156 7.132812 19.660156 19.558593 0 18.148438-19.066406 19.558594-24.90625 19.558594zm0 0"
     id="path6"
     style="fill:#ffffff" />
  <path
     d="m471.359375 330.054688c90.996094 0 165.027344-74.03125 165.027344-165.023438 0-91-74.03125-165.03125-165.027344-165.03125-37.320313 0-72.527344 12.152344-101.816406 35.148438-6.691407 5.246093-13.023438 11.058593-18.824219 17.273437-8.675781 9.296875-16.28125 19.585937-22.59375 30.589844-14.257812 24.855469-21.792969 53.214843-21.792969 82.019531 0 90.992188 74.03125 165.023438 165.027344 165.023438zm-121.472656-234.554688c5.359375-9.332031 11.804687-18.070312 19.171875-25.953125 4.921875-5.273437 10.296875-10.210937 15.972656-14.664063 24.828125-19.492187 54.679688-29.789062 86.328125-29.789062 77.160156 0 139.933594 62.773438 139.933594 139.9375 0 77.15625-62.773438 139.933594-139.933594 139.933594s-139.9375-62.777344-139.9375-139.933594c0-24.4375 6.386719-48.476562 18.464844-69.53125zm0 0"
     id="path8"
     style="fill:#ffffff" />
  <path
     d="m471.359375 277.636719c62.972656 0 114.199219-51.230469 114.199219-114.199219s-51.226563-114.199219-114.199219-114.199219c-62.96875 0-114.199219 51.230469-114.199219 114.199219s51.230469 114.199219 114.199219 114.199219zm0-203.308594c49.132813 0 89.109375 39.972656 89.109375 89.109375 0 49.132812-39.976562 89.105469-89.109375 89.105469-49.136719 0-89.109375-39.972657-89.109375-89.105469 0-49.136719 39.972656-89.109375 89.109375-89.109375zm0 0"
     id="path10"
     style="fill:#ffffff" />
  <path
     d="m 438.87891,557.53906 -55.60157,-54.92969 98.83594,-98.83984 c 4.89844,-4.90234 4.89844,-12.83984 0,-17.74609 l -3.625,-3.625 90.4375,-7.13282 -7.13281,90.4336 -5.75391,-5.7461 c -2.35156,-2.35546 -5.53906,-3.67968 -8.87109,-3.67968 -3.32422,0 -6.51953,1.32422 -8.87109,3.67968 m 8.87109,26.60938 16.11719,16.11719 c 3.46484,3.46093 8.625,4.59375 13.21484,2.90234 4.59375,-1.69531 7.77734,-5.90234 8.16406,-10.78125 l 10.4336,-132.21484 c 0.28906,-3.66016 -1.03907,-7.26563 -3.63282,-9.85547 -2.59765,-2.59766 -6.20703,-3.9336 -9.85937,-3.63672 l -132.21485,10.43359 c -4.8789,0.38672 -9.08593,3.56641 -10.78125,8.16407 -1.69531,4.58984 -0.5625,9.75 2.89844,13.21093 l 13.9961,13.9961 -98.89063,98.89062 c -2.36328,2.36328 -3.6875,5.56641 -3.67969,8.91016 0.0117,3.33984 1.35547,6.53906 3.73047,8.88672 l 73.3711,72.48047 c 2.4414,2.41796 5.6289,3.625 8.8164,3.625 3.17188,0 6.34766,-1.19922 8.78516,-3.59375"
     id="path12"
     inkscape:connector-curvature="0"
     sodipodi:nodetypes="ccccccccsccccccccccscscccsc"
     style="fill:#ffffff" />
  <path
     d="m57.082031 292.421875c.324219 0 .65625-.007813.988281-.039063l132.214844-10.429687c4.875-.386719 9.085938-3.574219 10.78125-8.167969 1.691406-4.589844.558594-9.753906-2.902344-13.214844l-13.992187-13.988281 98.890625-98.894531c4.902344-4.898438 4.902344-12.84375 0-17.742188l-73.925781-73.925781c-4.898438-4.894531-12.835938-4.894531-17.738281 0l-98.894532 98.894531-16.117187-16.121093c-3.460938-3.460938-8.617188-4.59375-13.210938-2.898438-4.597656 1.691407-7.785156 5.902344-8.164062 10.78125l-10.4375 132.210938c-.285157 3.660156 1.042969 7.265625 3.632812 9.859375 2.363281 2.363281 5.558594 3.675781 8.875 3.675781zm20.800781-116.648437 5.75 5.75c4.898438 4.898437 12.84375 4.898437 17.746094 0l98.890625-98.890626 56.179688 56.179688-98.890625 98.890625c-2.351563 2.355469-3.675782 5.546875-3.675782 8.875s1.324219 6.515625 3.675782 8.871094l3.628906 3.628906-90.441406 7.132813zm0 0"
     id="path14"
     style="fill:#ffffff" />
  <path
     d="m83.011719 423.804688c.957031 0 1.929687-.113282 2.90625-.34375l.460937-.105469c6.742188-1.597657 10.910156-8.355469 9.316406-15.097657-1.597656-6.742187-8.355468-10.910156-15.097656-9.320312l-.460937.109375c-6.742188 1.59375-10.914063 8.355469-9.320313 15.097656 1.367188 5.773438 6.511719 9.660157 12.195313 9.660157zm0 0"
     id="path16"
     style="fill:#ffffff" />
  <path
     id="path30"
     d="m159.84375 523.785156c-8.921875 0-16.753906-10.457031-16.753906-22.375 0-6.921875-5.613282-12.542968-12.542969-12.542968s-12.542969 5.621093-12.542969 12.542968c0 22.324219 13.660156 41.089844 31.992188 46.125.269531 6.691406 5.761718 12.039063 12.523437 12.039063 6.925781 0 12.542969-5.613281 12.542969-12.542969v-.054688c18.640625-4.746093 34.777344-18.542968 34.777344-42.75 0-28.878906-29.492188-44.640624-44.648438-44.648437-1.894531 0-7.710937-.9375-12.648437-3.722656-6.121094-3.464844-6.90625-7.417969-6.90625-10.480469 0-19.023438 19.363281-19.558594 19.558593-19.558594 3.691407 0 8.175782 2.183594 11.683594 5.699219 1.765625 1.757813 1.949219 1.941406 1.949219 9.070313 0 6.929687 5.617187 12.519531 12.542969 12.519531 6.929687 0 12.546875-5.640625 12.546875-12.574219 0-8.183594 0-17.464844-9.292969-26.761719-5.679688-5.679687-12.5-9.699219-19.585938-11.664062-.25-6.710938-5.75-12.082031-12.519531-12.082031-6.929687 0-12.546875 5.621093-12.546875 12.550781v1.105469c-14.078125 5.152343-29.425781 17.601562-29.425781 41.691406 0 13.6875 6.976563 25.167968 19.652344 32.324218 9.109375 5.148438 19.148437 6.972657 24.875 6.972657h.015625c3.890625.246093 19.660156 7.132812 19.660156 19.558593 0 18.148438-19.066406 19.558594-24.90625 19.558594zm0 0"
     style="fill:#ffffff" />
  <path
     style="stroke-width:1;fill:#ffffff"
     inkscape:connector-curvature="0"
     id="path30-3"
     d="m 468.95797,211.81966 c -8.92189,0 -16.75392,-10.45705 -16.75392,-22.375 0,-6.92188 -5.61328,-12.54298 -12.54297,-12.54298 -6.92968,0 -12.54296,5.6211 -12.54296,12.54298 0,22.3242 13.66015,41.08984 31.99218,46.125 0.26954,6.69139 5.76173,12.03904 12.52345,12.03904 6.92578,0 12.54297,-5.61327 12.54297,-12.54297 v -0.0547 c 18.64061,-4.74609 34.77734,-18.54296 34.77734,-42.74999 0,-28.87891 -29.49218,-44.64062 -44.64843,-44.64843 -1.89454,0 -7.71094,-0.93751 -12.64844,-3.72266 -6.12111,-3.46485 -6.90626,-7.41797 -6.90626,-10.48047 0,-19.02345 19.36329,-19.5586 19.5586,-19.5586 3.69141,0 8.17578,2.18359 11.6836,5.69922 1.76562,1.75782 1.94921,1.9414 1.94921,9.07032 0,6.92968 5.61719,12.51953 12.54297,12.51953 6.92968,0 12.54687,-5.64063 12.54687,-12.57422 0,-8.1836 0,-17.46485 -9.29296,-26.76173 -5.67969,-5.679686 -12.5,-9.699216 -19.58594,-11.664056 -0.25,-6.71094 -5.75,-12.08203 -12.51953,-12.08203 -6.92969,0 -12.54688,5.62109 -12.54688,12.55078 v 1.10547 c -14.07813,5.15234 -29.42578,17.601556 -29.42578,41.691396 0,13.6875 6.97656,25.16798 19.65234,32.32423 9.10937,5.14844 19.14845,6.97266 24.87501,6.97266 h 0.0156 c 3.89063,0.24609 19.66016,7.1328 19.66016,19.55859 0,18.14844 -19.06641,19.55859 -24.90625,19.55859 z m 0,0" />
</svg>
