<?xml version="1.0"?>
<svg xmlns="http://www.w3.org/2000/svg" xmlns:xlink="http://www.w3.org/1999/xlink" version="1.1" id="Capa_1" x="0px" y="0px" viewBox="0 0 512 512" style="enable-background:new 0 0 512 512;" xml:space="preserve" width="512px" height="512px"><g><g>
	<g>
		<path d="M501.961,0H10.039C4.496,0,0,4.496,0,10.039v491.922C0,507.504,4.496,512,10.039,512h491.922    c5.544,0,10.039-4.496,10.039-10.039V10.039C512,4.496,507.504,0,501.961,0z M491.922,491.922H384.806l107.115-107.115V491.922z     M370.608,477.723V370.608h107.115L370.608,477.723z M491.922,350.529H360.568c-5.544,0-10.039,4.496-10.039,10.039v131.353    H20.078V20.078h471.843V350.529z" data-original="#ffffff" class="active-path" fill="#ffffff"/>
	</g>
</g><g>
	<g>
		<path d="M419.634,51.285h-73.687c-5.544,0-10.039,4.496-10.039,10.039c0,5.544,4.496,10.039,10.039,10.039h73.687    c5.544,0,10.039-4.496,10.039-10.039C429.673,55.781,425.178,51.285,419.634,51.285z" data-original="#ffffff" class="active-path" fill="#ffffff"/>
	</g>
</g><g>
	<g>
		<path d="M445.947,51.285c-12.919,0-12.941,20.078,0,20.078C458.866,71.364,458.888,51.285,445.947,51.285z" data-original="#ffffff" class="active-path" fill="#ffffff"/>
	</g>
</g></g> </svg>
